<?xml version="1.0" standalone="no"?><!DOCTYPE svg PUBLIC "-//W3C//DTD SVG 1.1//EN" "http://www.w3.org/Graphics/SVG/1.1/DTD/svg11.dtd"><svg t="1675834074299" class="icon" viewBox="0 0 1024 1024" version="1.1" xmlns="http://www.w3.org/2000/svg" p-id="4870" width="60" height="60" xmlns:xlink="http://www.w3.org/1999/xlink"><path d="M342.1895 818.832224 342.1895 64.24214l419.218874 0 0 167.685094 0 27.949562 195.634656 0L957.043029 818.832224 342.1895 818.832224zM873.199459 343.717296 426.034093 343.717296l0 27.950586 447.165366 0L873.199459 343.717296zM873.199459 455.508381 426.034093 455.508381l0 27.947516 447.165366 0L873.199459 455.508381zM873.199459 567.514361 426.034093 567.514361l0 27.947516 447.165366 0L873.199459 567.514361zM873.199459 679.091576 426.034093 679.091576l0 27.946492 447.165366 0L873.199459 679.091576zM789.351795 64.24214l18.891256 0 148.798954 140.456962 0 27.228131L789.351795 231.927233 789.351795 64.24214zM314.240961 846.779739l279.477202 0 83.844593 0 0 111.790062L62.711274 958.569802 62.711274 203.980741 314.240961 203.980741l0 279.475156L146.554844 483.455897l0 27.949562L314.240961 511.405459l0 83.841523L146.554844 595.246983l0 27.949562L314.240961 623.196545l0 83.841523L146.554844 707.038068l0 27.949562L314.240961 734.98763l0 83.844593L146.554844 818.832224l0 27.947516L314.240961 846.779739z" fill="#2B629D" p-id="4871"></path></svg>