<?xml version="1.0" standalone="no"?><!DOCTYPE svg PUBLIC "-//W3C//DTD SVG 1.1//EN" "http://www.w3.org/Graphics/SVG/1.1/DTD/svg11.dtd"><svg t="1675834170125" class="icon" viewBox="0 0 1024 1024" version="1.1" xmlns="http://www.w3.org/2000/svg" p-id="5497" xmlns:xlink="http://www.w3.org/1999/xlink" width="60" height="60"><path d="M102.4 102.4v405.504s186.368-129.024 358.4 0 329.728 139.264 460.8 61.44V102.4H102.4z" fill="#FFEA00" p-id="5498"></path><path d="M942.08 0H81.92C36.864 0 0 36.864 0 81.92v860.16c0 45.056 36.864 81.92 81.92 81.92h860.16c45.056 0 81.92-36.864 81.92-81.92V81.92c0-45.056-36.864-81.92-81.92-81.92z m20.48 921.6c0 22.528-18.432 40.96-40.96 40.96H102.4c-22.528 0-40.96-18.432-40.96-40.96V102.4c0-22.528 18.432-40.96 40.96-40.96h819.2c22.528 0 40.96 18.432 40.96 40.96v819.2z" fill="" p-id="5499"></path><path d="M460.8 569.344c-172.032-129.024-358.4 0-358.4 0V921.6h819.2V630.784c-131.072 77.824-288.768 67.584-460.8-61.44z" fill="" p-id="5500"></path><path d="M706.56 204.8c-73.728 0-133.12 59.392-133.12 133.12s59.392 133.12 133.12 133.12 133.12-59.392 133.12-133.12-59.392-133.12-133.12-133.12z m0 204.8c-38.912 0-71.68-32.768-71.68-71.68s32.768-71.68 71.68-71.68 71.68 32.768 71.68 71.68-32.768 71.68-71.68 71.68z" fill="" p-id="5501"></path></svg>