<?xml version="1.0" standalone="no"?><!DOCTYPE svg PUBLIC "-//W3C//DTD SVG 1.1//EN" "http://www.w3.org/Graphics/SVG/1.1/DTD/svg11.dtd"><svg t="1675834185123" class="icon" viewBox="0 0 1024 1024" version="1.1" xmlns="http://www.w3.org/2000/svg" p-id="5660" xmlns:xlink="http://www.w3.org/1999/xlink" width="60" height="60"><path d="M932.9 725.7c-5.1 0-9.2-4.1-9.2-9.2v-453c0-32.8-26.7-59.5-59.5-59.5H159.4c-32.8 0-59.5 26.7-59.5 59.5v453.1c0 5.1-4.1 9.2-9.2 9.2s-9.2-4.1-9.2-9.2V263.5c0-42.9 34.9-77.8 77.8-77.8h704.8c42.9 0 77.8 34.9 77.8 77.8v453.1c0.1 5-4 9.1-9 9.1zM928.3 762.3H95.4c-17.7 0-32 14.3-32 32s14.3 32 32 32h832.9c17.7 0 32-14.3 32-32 0.1-17.6-14.3-32-32-32z m-357 45.8h-119c-7.6 0-13.7-6.1-13.7-13.7s6.1-13.7 13.7-13.7h119c7.6 0 13.7 6.1 13.7 13.7 0.1 7.6-6.1 13.7-13.7 13.7z" fill="#111111" p-id="5661"></path><path d="M575.9 451.1H466.1v-36.6h109.8v36.6zM475.2 442h91.5v-18.3h-91.5V442zM575.9 506H466.1v-36.6h109.8V506z m-100.7-9.1h91.5v-18.3h-91.5v18.3zM575.9 561H466.1v-36.6h109.8V561z m-100.7-9.2h91.5v-18.3h-91.5v18.3zM644.6 510.6c-12.6 0-22.9-10.3-22.9-22.9 0-12.6 10.3-22.9 22.9-22.9 12.6 0 22.9 10.3 22.9 22.9-0.1 12.7-10.3 22.9-22.9 22.9z m0-36.6c-7.6 0-13.7 6.2-13.7 13.7 0 7.6 6.2 13.7 13.7 13.7s13.7-6.2 13.7-13.7c0-7.5-6.2-13.7-13.7-13.7z" fill="#111111" p-id="5662"></path><path d="M269.3 487.7m-18.3 0a18.3 18.3 0 1 0 36.6 0 18.3 18.3 0 1 0-36.6 0Z" fill="#111111" p-id="5663"></path><path d="M383.7 513.6l-25.9-25.9 25.9-25.9 25.9 25.9-25.9 25.9z m-12.9-25.9l12.9 12.9 12.9-12.9-12.9-12.9-12.9 12.9zM763.569 474.01v27.5h-27.5v-27.5z" fill="#111111" p-id="5664"></path><path d="M287.6 483.2H370v9.2h-82.4zM662.9 483.2h73.2v9.2h-73.2zM397.4 483.2h73.2v9.2h-73.2zM388.3 474h-9.2v-45.8h91.6v9.2h-82.4zM379.1 547.2V506h9.2v32.1h82.4v9.1zM649.1 469.4H640v-32h-68.7v-9.2h77.8zM649.1 547.2h-73.2v-9.1H640V506h9.1zM772.7 680H251v-73.2h521.7V680z m-512.6-9.2h503.4v-54.9H260.1v54.9z" fill="#111111" p-id="5665"></path><path d="M292.2 611.3h9.2v27.5h-9.2zM319.6 611.3h9.2v45.8h-9.2zM347.1 615.9h9.2v27.5h-9.2zM374.5 615.9h9.2v45.8h-9.2zM402 615.9h9.2v27.5H402zM429.5 615.9h9.2v45.8h-9.2zM456.9 615.9h9.2v27.5h-9.2zM484.4 615.9h9.2v45.8h-9.2zM511.8 615.9h9.2v27.5h-9.2zM539.3 615.9h9.2v45.8h-9.2zM566.8 615.9h9.2v27.5h-9.2zM594.2 615.9h9.2v45.8h-9.2zM621.7 615.9h9.2v27.5h-9.2zM649.1 615.9h9.2v45.8h-9.2zM676.6 615.9h9.2v27.5h-9.2zM704.1 615.9h9.2v45.8h-9.2zM768.1 359.6H314.3L255 338.4c-2.7-1-4.4-3.4-4.4-6.3s1.7-5.3 4.4-6.3l59.2-21.2h453.9v55z m-452.3-9.2H759v-36.6H315.8l-51.3 18.3 51.3 18.3z" fill="#111111" p-id="5666"></path><path d="M704.1 309.3h9.2v45.8h-9.2zM255.6 332.1l18.3-9.1v18.3zM315 313.8h9.2v36.6H315z" fill="#111111" p-id="5667"></path></svg>